<svg id="Layer_1" data-name="Layer 1" xmlns="http://www.w3.org/2000/svg" xmlns:xlink="http://www.w3.org/1999/xlink" viewBox="0 0 471.03 471.06"><defs><style>.cls-1{fill:url(#linear-gradient);}.cls-2{fill:url(#linear-gradient-2);}</style><linearGradient id="linear-gradient" x1="83.07" y1="554.07" x2="351.39" y2="-6.59" gradientUnits="userSpaceOnUse"><stop offset="0" stop-color="#24bdef"/><stop offset="0.29" stop-color="#3ebfdd"/><stop offset="0.9" stop-color="#81c6ae"/><stop offset="1" stop-color="#8dc7a6"/></linearGradient><linearGradient id="linear-gradient-2" x1="75.26" y1="570.37" x2="357.32" y2="-18.99" xlink:href="#linear-gradient"/></defs><path class="cls-1" d="M370.05,179.77c-2.13-12.43-13-22.81-24.74-23.66-.39,0-.77,0-1.12,0H344a19.51,19.51,0,0,0-3.65-.19,18.87,18.87,0,0,0-14.46,7.38c-3.85,5-5.15,11.88-3.6,18.77,2,8.78,5,28.6,4,46.88-.86,9.76-2.62,18-5.1,24a27,27,0,0,1-2.93,5c-3.72,4.67-8.79,6.54-16.89,6l-.68,0c-14.65-1.44-32.53-23.62-49.9-45.15-23-28.57-49.08-60.93-83.88-63.79l-.76-.05c-19.91-1.39-36.66,5.36-48.36,19.51a68.59,68.59,0,0,0-10.28,17.16c-4.93,10.51-8,23.43-9,38.27-2.69,28.89,1.6,56.23,2.51,61.4,2.09,12.46,13,22.85,24.7,23.68.41,0,.79,0,1.14.05H127c.31,0,.59.07.89.12H128a25.92,25.92,0,0,0,2.65.06,19,19,0,0,0,14.49-7.39c3.83-5,5.13-11.84,3.58-18.76-1.95-8.8-5-28.62-4-46.93.83-9.69,2.58-17.89,5.07-24a29.47,29.47,0,0,1,2.94-5c3.72-4.72,8.79-6.57,16.91-6h0l.52.13.16-.05c14.63,1.46,32.51,23.6,49.87,45.13,23,28.54,49.12,60.94,83.9,63.8l.76.06c19.93,1.4,36.65-5.38,48.38-19.53a71.11,71.11,0,0,0,10.24-17.13c5-10.54,8-23.49,9-38.34C375.22,212.27,370.92,184.94,370.05,179.77Z"/><path class="cls-2" d="M235.51,0C105.65,0,0,105.65,0,235.52S105.65,471.06,235.51,471.06,471,365.38,471,235.52,365.38,0,235.51,0Zm0,437.92c-111.62,0-202.37-90.79-202.37-202.4s90.75-202.4,202.37-202.4,202.4,90.82,202.4,202.4S347.1,437.92,235.51,437.92Z"/></svg>