<svg id="Layer_1" data-name="Layer 1" xmlns="http://www.w3.org/2000/svg" xmlns:xlink="http://www.w3.org/1999/xlink" viewBox="0 0 2797.19 500"><defs><style>.cls-1{fill:url(#linear-gradient);}.cls-2{fill:url(#linear-gradient-2);}.cls-3{fill:url(#linear-gradient-3);}.cls-4{fill:url(#linear-gradient-4);}.cls-5{fill:url(#linear-gradient-5);}.cls-6{fill:url(#linear-gradient-6);}.cls-7{fill:url(#linear-gradient-7);}.cls-8{fill:url(#linear-gradient-8);}.cls-9{fill:#12284c;}.cls-10{fill:url(#linear-gradient-9);}.cls-11{fill:url(#linear-gradient-10);}</style><linearGradient id="linear-gradient" x1="611.92" y1="56.07" x2="1919.71" y2="391.85" gradientUnits="userSpaceOnUse"><stop offset="0" stop-color="#24bdef"/><stop offset="1" stop-color="#8dc7a6"/></linearGradient><linearGradient id="linear-gradient-2" x1="617.8" y1="33.07" x2="1925.71" y2="368.89" xlink:href="#linear-gradient"/><linearGradient id="linear-gradient-3" x1="628.81" y1="-9.64" x2="1936.52" y2="326.12" xlink:href="#linear-gradient"/><linearGradient id="linear-gradient-4" x1="630.7" y1="-17.12" x2="1938.51" y2="318.67" xlink:href="#linear-gradient"/><linearGradient id="linear-gradient-5" x1="636.88" y1="-41.08" x2="1944.59" y2="294.68" xlink:href="#linear-gradient"/><linearGradient id="linear-gradient-6" x1="642.7" y1="-64.15" x2="1950.63" y2="271.67" xlink:href="#linear-gradient"/><linearGradient id="linear-gradient-7" x1="649.08" y1="-90.08" x2="1957.49" y2="245.86" xlink:href="#linear-gradient"/><linearGradient id="linear-gradient-8" x1="514.53" y1="137.62" x2="1210.73" y2="322.97" xlink:href="#linear-gradient"/><linearGradient id="linear-gradient-9" x1="83.07" y1="583.01" x2="351.39" y2="22.35" gradientUnits="userSpaceOnUse"><stop offset="0" stop-color="#24bdef"/><stop offset="0.29" stop-color="#3ebfdd"/><stop offset="0.9" stop-color="#81c6ae"/><stop offset="1" stop-color="#8dc7a6"/></linearGradient><linearGradient id="linear-gradient-10" x1="75.26" y1="599.32" x2="357.32" y2="9.95" xlink:href="#linear-gradient-9"/></defs><path class="cls-1" d="M701,108.89V66c0-11.36,3-19.6,9.07-24.9s13.92-8,23.63-8q15,0,24.23,7.42a23.61,23.61,0,0,1,9.2,19.26c0,3.15-.58,5.3-1.74,6.41s-3.19,1.71-6.07,1.71c-5.08,0-7.71-1.71-7.78-5.2C750.92,52.24,745.17,47,734.28,47c-11.77,0-17.67,6.32-17.67,19v42.9c0,12.68,6,19,17.95,19a22.61,22.61,0,0,0,8.87-1.55,9.81,9.81,0,0,0,5.07-4.49,21.86,21.86,0,0,0,2.1-5.18,26.61,26.61,0,0,0,.95-5.47c.26-3.43,2.83-5.09,7.67-5.09,2.82,0,4.86.54,6.08,1.66s1.84,3.28,1.84,6.45a24.67,24.67,0,0,1-9.29,19.87q-9.26,7.65-24.27,7.64-14.6,0-23.6-7.94T701,108.89Z"/><path class="cls-2" d="M820,135.64V38.12a3.94,3.94,0,0,1,2.3-3.72,12.43,12.43,0,0,1,11,0,3.94,3.94,0,0,1,2.28,3.72V127h38.29a3.85,3.85,0,0,1,3.48,2.08,9.13,9.13,0,0,1,1.26,4.89,8.87,8.87,0,0,1-1.26,4.81,3.8,3.8,0,0,1-3.48,2.05H827a8.6,8.6,0,0,1-4.88-1.36A4.34,4.34,0,0,1,820,135.64Z"/><path class="cls-3" d="M923.59,13.45a4,4,0,0,1,2.22-3.86L944.07.22A15.32,15.32,0,0,1,945.7,0a4.37,4.37,0,0,1,3.52,1.9A6.36,6.36,0,0,1,950.72,6a4,4,0,0,1-2.38,4l-17.81,9a4,4,0,0,1-1.77.45,4.47,4.47,0,0,1-3.59-1.92A6.26,6.26,0,0,1,923.59,13.45Zm5,122.19V38.12a3.94,3.94,0,0,1,2.27-3.72,12.54,12.54,0,0,1,11.08,0,4,4,0,0,1,2.25,3.72v97.52a4.3,4.3,0,0,1-2.25,3.78,11.84,11.84,0,0,1-11,0A4.28,4.28,0,0,1,928.62,135.64Z"/><path class="cls-4" d="M1002,135.64V38.27c0-3.42,2.64-5.16,7.82-5.16a10.72,10.72,0,0,1,6.64,1.87c1.68,1.24,3.39,3.56,5.15,7l32.71,63.76V38.12a3.93,3.93,0,0,1,2.25-3.72,11.08,11.08,0,0,1,5.55-1.29,10.89,10.89,0,0,1,5.52,1.29,4,4,0,0,1,2.31,3.72v97.52a4.34,4.34,0,0,1-2.31,3.78,10.32,10.32,0,0,1-5.52,1.36,10,10,0,0,1-9.25-5.67l-35.24-67v67.55a4.27,4.27,0,0,1-2.28,3.78,10.48,10.48,0,0,1-5.53,1.36,10.37,10.37,0,0,1-5.44-1.36A4.22,4.22,0,0,1,1002,135.64Z"/><path class="cls-5" d="M1127.63,135.64V38.12a4,4,0,0,1,2.28-3.72,11.18,11.18,0,0,1,5.54-1.29,10.86,10.86,0,0,1,5.5,1.29,3.94,3.94,0,0,1,2.3,3.72v97.52a4.25,4.25,0,0,1-2.3,3.78,10.3,10.3,0,0,1-5.5,1.36,10.46,10.46,0,0,1-5.45-1.36A4.23,4.23,0,0,1,1127.63,135.64Z"/><path class="cls-6" d="M1200,108.89V66c0-11.36,3-19.6,9.07-24.9s13.92-8,23.66-8q15,0,24.21,7.42a23.56,23.56,0,0,1,9.21,19.26c0,3.15-.58,5.3-1.75,6.41s-3.2,1.71-6,1.71c-5.11,0-7.72-1.71-7.82-5.2-.61-10.47-6.37-15.75-17.24-15.75-11.77,0-17.67,6.32-17.67,19v42.9c0,12.68,6,19,17.94,19a22.66,22.66,0,0,0,8.88-1.55,10.18,10.18,0,0,0,5.09-4.49,26.86,26.86,0,0,0,2.13-5.18,32.35,32.35,0,0,0,.87-5.47c.3-3.43,2.88-5.09,7.66-5.09,2.87,0,4.9.54,6.13,1.66s1.82,3.28,1.82,6.45a24.75,24.75,0,0,1-9.28,19.87q-9.25,7.65-24.31,7.64-14.54,0-23.56-7.94T1200,108.89Z"/><path class="cls-7" d="M1311.38,134.33a3.84,3.84,0,0,1,.16-1.32l29.28-95.45c1.23-3.56,4.75-5.32,10.44-5.32s9.4,1.64,10.63,4.91l29.15,95.5a4.14,4.14,0,0,1,.34,1.42c0,1.83-1.15,3.38-3.43,4.75a14.58,14.58,0,0,1-7.29,2c-3.13,0-5-1.06-5.75-3.15l-6.14-21.13h-36.22l-6,21.06c-.67,2.16-2.48,3.22-5.43,3.22a12.2,12.2,0,0,1-6.62-1.9C1312.43,137.63,1311.38,136.08,1311.38,134.33Zm24.76-30.25h29.19l-14.76-50.51Z"/><rect class="cls-8" x="701.01" y="191.75" width="79.9" height="12.3"/><path class="cls-9" d="M857.39,269.63h50.13V494.17H857.39L750.44,353.47v140.7H700.29V269.63H747.2L857.39,414.17Z"/><path class="cls-9" d="M1047.9,436.17c8.37,10.36,19.62,15.61,33.75,15.61s25.33-5.25,33.55-15.61,12.39-24.57,12.39-42.57v-124h50.13v125.6q0,48.79-27,75t-69.06,26.19q-42.09,0-69.23-26.38t-27.15-74.83V269.63h50.1v124Q1035.37,420.6,1047.9,436.17Z"/><path class="cls-9" d="M1417.36,269.63v44.62H1305.57v46.28h100.56v42.74H1305.57v46.58h115.32v44.32H1255.45V269.63Z"/><path class="cls-9" d="M1574.16,412.57l57.16-142.94h54.3l-90.28,224.54h-42.42l-90.26-224.54H1517Z"/><path class="cls-9" d="M1921.73,463.16q-34,33.25-83.84,33.28t-83.83-33.28Q1720,429.92,1720,380.45t34.07-82.74q34.07-33.29,83.83-33.24t83.84,33.24q34.07,33.27,34.07,82.74T1921.73,463.16Zm-17-82.53q0-30.06-19.3-51.25T1838,308.14q-28.08,0-47.38,21.24t-19.28,51.25q0,30,19.28,51.05t47.38,21q28.11,0,47.38-21T1904.72,380.63Z"/><path class="cls-9" d="M2186.93,314.45a19.31,19.31,0,0,0-7.22,15.69c0,6.56,3,11.74,8.81,15.57s19.52,8.48,40.83,13.71S2267.22,372.5,2279,383s17.68,25.81,17.68,45.88-7.58,36.51-22.68,49-35,18.81-59.57,18.81q-53.36,0-96.07-39.55l29.88-36.54q36.29,31.69,67.13,31.75c9.21,0,16.47-2,21.72-5.94a19.07,19.07,0,0,0,7.84-16.07,18.75,18.75,0,0,0-8.34-16q-8.37-6-33.09-12-39.19-9.35-57.32-24.25c-12.11-10-18.18-25.59-18.18-46.95s7.66-37.72,23-49.33,34.42-17.32,57.34-17.32a138.8,138.8,0,0,1,45,7.7,121,121,0,0,1,39.21,21.88l-25.38,36.59q-29.28-22.15-60.43-22.16C2198.34,308.48,2191.75,310.5,2186.93,314.45Z"/><path class="cls-9" d="M2527,269.63v44.62h-111.8v46.28h100.51v42.74H2415.22v46.58h115.27v44.32H2365.08V269.63Z"/><path class="cls-9" d="M2740.33,413.85q42.71-15.74,42.72-69.71,0-39.17-22.34-56.84T2686,269.63h-85.17V494.17H2651V422.51h0V379.15h0V312.64h37.59c16,0,27.32,2.29,33.73,6.79s9.64,12.75,9.64,24.85-3.11,21-9.29,26.53-17.91,8.34-35,8.34H2673c-2.44,0-13.64.63-8.87,8.78l71.79,106.24h61.26Z"/><path class="cls-10" d="M370.05,208.72c-2.13-12.43-13-22.82-24.74-23.66-.39,0-.77,0-1.12,0H344a19.47,19.47,0,0,0-18.11,7.19c-3.85,5-5.15,11.87-3.6,18.77,2,8.78,5,28.6,4,46.87-.86,9.76-2.62,18-5.1,24a27.49,27.49,0,0,1-2.93,5.05c-3.72,4.66-8.79,6.53-16.89,6l-.68-.06c-14.65-1.43-32.53-23.61-49.9-45.14-23-28.58-49.08-60.93-83.88-63.79l-.76-.06c-19.91-1.39-36.66,5.36-48.36,19.51a68.77,68.77,0,0,0-10.28,17.16c-4.93,10.52-8,23.43-9,38.28-2.69,28.88,1.6,56.23,2.51,61.39,2.09,12.47,13,22.85,24.7,23.69.41,0,.79,0,1.14.05H127c.31,0,.59.07.89.11H128a25.9,25.9,0,0,0,2.65.07,19,19,0,0,0,14.49-7.4c3.83-5,5.13-11.84,3.58-18.75-1.95-8.81-5-28.62-4-46.94.83-9.69,2.58-17.89,5.07-24a29.47,29.47,0,0,1,2.94-5c3.72-4.72,8.79-6.57,16.91-6h0l.52.13.16,0c14.63,1.46,32.51,23.59,49.87,45.13,23,28.53,49.12,60.94,83.9,63.8l.76.06c19.93,1.4,36.65-5.39,48.38-19.54a70.91,70.91,0,0,0,10.24-17.13c5-10.53,8-23.49,9-38.33C375.22,241.21,370.92,213.88,370.05,208.72Z"/><path class="cls-11" d="M235.51,28.94C105.65,28.94,0,134.59,0,264.47S105.65,500,235.51,500,471,394.33,471,264.47,365.38,28.94,235.51,28.94Zm0,437.92c-111.62,0-202.37-90.78-202.37-202.39S123.89,62.06,235.51,62.06s202.4,90.82,202.4,202.41S347.1,466.86,235.51,466.86Z"/></svg>